<svg xmlns="http://www.w3.org/2000/svg" viewBox="0 8.399999618530273 223.4499969482422 38.19999694824219" data-asc="0.92" width="223.4499969482422" height="38.19999694824219"><defs/><g fill="#8c80f0"><g transform="translate(0, 0)"><path d="M12.25 46.60Q8.55 46.60 5.78 44.88Q3 43.15 1.50 40.08Q0 37 0 33Q0 29.25 1.53 26.15Q3.05 23.05 5.90 21.22Q8.75 19.40 12.60 19.40Q14.80 19.40 16.48 19.80Q18.15 20.20 19.70 20.95L18.35 24.75Q16.95 24.05 15.68 23.72Q14.40 23.40 12.85 23.40Q9.35 23.40 6.97 25.92Q4.60 28.45 4.60 32.90Q4.60 35.60 5.60 37.80Q6.60 40 8.38 41.30Q10.15 42.60 12.55 42.60Q14.45 42.60 15.80 42.17Q17.15 41.75 18.70 40.95L20.10 44.75Q18.55 45.60 16.63 46.10Q14.70 46.60 12.25 46.60ZM35.80 46.60Q32.10 46.60 29.15 44.88Q26.20 43.15 24.53 40.08Q22.85 37 22.85 33Q22.85 28.80 24.55 25.75Q26.25 22.70 29.20 21.05Q32.15 19.40 35.80 19.40Q39.45 19.40 42.38 21.05Q45.30 22.70 47.03 25.72Q48.75 28.75 48.75 32.90Q48.75 37.05 47.05 40.13Q45.35 43.20 42.43 44.90Q39.50 46.60 35.80 46.60M35.80 42.60Q39.75 42.60 41.95 39.92Q44.15 37.25 44.15 33Q44.15 30.40 43.05 28.22Q41.95 26.05 40.08 24.72Q38.20 23.40 35.80 23.40Q31.85 23.40 29.65 26Q27.45 28.60 27.45 32.90Q27.45 35.50 28.55 37.73Q29.65 39.95 31.53 41.27Q33.40 42.60 35.80 42.60ZM54.75 46L54.75 20L59.10 20L59.10 24.35Q60.50 22.25 62.67 20.82Q64.85 19.40 67.85 19.40Q72.25 19.40 74.42 22.05Q76.60 24.70 76.60 29.05L76.60 46L72.10 46L72.10 29.55Q72.10 26.75 70.78 25.05Q69.45 23.35 67.10 23.35Q64.80 23.35 62.75 24.97Q60.70 26.60 59.25 28.80L59.25 46L54.75 46ZM84.85 46L84.85 24.85L80.85 24.85L80.85 20.95L84.85 20.95L84.85 17.90Q84.85 13.50 87.30 10.95Q89.75 8.40 93.70 8.40Q95.75 8.40 97.30 8.88Q98.85 9.35 100.25 10.05L98.90 13.85Q97.85 13.30 96.65 12.85Q95.45 12.40 94 12.40Q91.90 12.40 90.63 13.73Q89.35 15.05 89.35 17.60L89.35 20.95L97.05 20.95L97.05 24.85L89.35 24.85L89.35 46L84.85 46ZM104.25 30.90L104.25 26.80L121.25 26.80L121.25 30.90L104.25 30.90ZM140.85 46.60Q137.10 46.60 134.93 44.13Q132.75 41.65 132.75 37.05L132.75 24.85L128.25 24.85L128.25 20.95L132.85 20.95L133.80 12.75L137.25 12.75L137.25 20.95L144.45 20.95L144.45 24.85L137.25 24.85L137.25 37.40Q137.25 40.30 138.47 41.45Q139.70 42.60 141.40 42.60Q142.65 42.60 143.78 42.20Q144.90 41.80 145.85 41.25L147.10 44.85Q146.10 45.45 144.40 46.02Q142.70 46.60 140.85 46.60ZM161.55 46.60Q157.85 46.60 154.90 44.88Q151.95 43.15 150.28 40.08Q148.60 37 148.60 33Q148.60 28.80 150.30 25.75Q152 22.70 154.95 21.05Q157.90 19.40 161.55 19.40Q165.20 19.40 168.13 21.05Q171.05 22.70 172.78 25.72Q174.50 28.75 174.50 32.90Q174.50 37.05 172.80 40.13Q171.10 43.20 168.18 44.90Q165.25 46.60 161.55 46.60M161.55 42.60Q165.50 42.60 167.70 39.92Q169.90 37.25 169.90 33Q169.90 30.40 168.80 28.22Q167.70 26.05 165.82 24.72Q163.95 23.40 161.55 23.40Q157.60 23.40 155.40 26Q153.20 28.60 153.20 32.90Q153.20 35.50 154.30 37.73Q155.40 39.95 157.28 41.27Q159.15 42.60 161.55 42.60ZM191.45 46.60Q187.75 46.60 184.80 44.88Q181.85 43.15 180.18 40.08Q178.50 37 178.50 33Q178.50 28.80 180.20 25.75Q181.90 22.70 184.85 21.05Q187.80 19.40 191.45 19.40Q195.10 19.40 198.03 21.05Q200.95 22.70 202.68 25.72Q204.40 28.75 204.40 32.90Q204.40 37.05 202.70 40.13Q201 43.20 198.07 44.90Q195.15 46.60 191.45 46.60M191.45 42.60Q195.40 42.60 197.60 39.92Q199.80 37.25 199.80 33Q199.80 30.40 198.70 28.22Q197.60 26.05 195.72 24.72Q193.85 23.40 191.45 23.40Q187.50 23.40 185.30 26Q183.10 28.60 183.10 32.90Q183.10 35.50 184.20 37.73Q185.30 39.95 187.18 41.27Q189.05 42.60 191.45 42.60ZM218.30 46.60Q216 46.60 214.15 45.73Q212.30 44.85 211.22 42.90Q210.15 40.95 210.15 37.85L210.15 9L214.65 9L214.65 37.40Q214.65 40.10 215.78 41.40Q216.90 42.70 218.90 42.70Q219.85 42.70 220.78 42.48Q221.70 42.25 222.35 41.95L223.45 45.60Q222.55 46 221.22 46.30Q219.90 46.60 218.30 46.60Z"/></g><g transform="translate(0, 63.1)"><path d=""/></g></g></svg>